<?xml version="1.0" standalone="no"?>
<!DOCTYPE svg PUBLIC "-//W3C//DTD SVG 1.1//EN" "http://www.w3.org/Graphics/SVG/1.1/DTD/svg11.dtd" >
<svg xmlns="http://www.w3.org/2000/svg">
<metadata></metadata>
<defs>
<font id="webfontregular" horiz-adv-x="1241" >
<font-face units-per-em="2048" ascent="1638" descent="-410" />
<missing-glyph horiz-adv-x="621" />
<glyph horiz-adv-x="2048" />
<glyph horiz-adv-x="2048" />
<glyph unicode="&#xd;" horiz-adv-x="621" />
<glyph unicode=" "  horiz-adv-x="621" />
<glyph unicode="&#x09;" horiz-adv-x="621" />
<glyph unicode="&#xa0;" horiz-adv-x="621" />
<glyph unicode="!" horiz-adv-x="664" d="M178 1489h295l-53 -987h-191zM188 0v295h275v-295h-275z" />
<glyph unicode="&#x22;" horiz-adv-x="643" d="M86 879v557h164v-557h-164zM395 879v557h164v-557h-164z" />
<glyph unicode="#" horiz-adv-x="1575" d="M70 428l61 172h297l90 252h-315l61 172h316l155 436h191l-154 -436h250l156 436h190l-154 -436h291l-59 -172h-293l-90 -252h309l-61 -172h-307l-156 -434h-191l156 434h-252l-158 -434h-190l156 434h-299zM618 598h256l91 254h-256z" />
<glyph unicode="$" d="M90 256l166 164q35 -45 70.5 -80t70.5 -60q69 -47 146 -54v438q-231 48 -339 151t-108 272q0 176 119 282q63 56 144 87t184 31v139h127v-139q127 -12 230 -64.5t194 -152.5l-162 -170q-57 80 -122 122q-33 22 -68.5 35t-71.5 13v-398q252 -63 360.5 -168.5t108.5 -287.5 q0 -185 -127 -299q-64 -57 -150 -87t-192 -30v-203h-127v203q-145 14 -256 77t-197 179zM324 1104q0 -77 50.5 -121t168.5 -68v365q-53 0 -93 -12.5t-70 -37.5q-56 -45 -56 -126zM670 219q112 0 168.5 46.5t56.5 137.5t-51.5 142t-173.5 78v-404z" />
<glyph unicode="%" horiz-adv-x="1802" d="M63 1139q0 156 107 262t262 106t262 -106t107 -262q0 -153 -109 -261t-260 -108q-154 0 -261.5 107.5t-107.5 261.5zM264 1139q0 -69 48.5 -117.5t119.5 -48.5q68 0 117 48t49 118q0 69 -48.5 117.5t-117.5 48.5t-118.5 -49t-49.5 -117zM373 -25l882 1532h172l-884 -1532 h-170zM999 346q0 155 107 261t262 106q156 0 262.5 -105.5t106.5 -261.5q0 -153 -108.5 -262t-260.5 -109q-153 0 -261 108t-108 263zM1202 346q0 -68 48.5 -118t117.5 -50t118.5 49t49.5 119q0 69 -48.5 117.5t-119.5 48.5q-68 0 -117 -48t-49 -118z" />
<glyph unicode="&#x26;" horiz-adv-x="1350" d="M80 406q0 117 57.5 213.5t184.5 185.5q-58 77 -87.5 160.5t-29.5 169.5q0 175 94.5 273.5t261.5 98.5q169 0 266 -89t97 -242q0 -113 -63 -213.5t-202 -206.5q42 -59 104 -125q56 -61 150 -148q32 55 64 125t55 142l232 -70q-35 -99 -79.5 -189t-101.5 -172 q34 -22 58 -35q18 -10 53 -27q45 -20 90 -26v-267q-45 0 -91 11t-89 31q-87 39 -178 121q-92 -80 -192 -120t-216 -40q-195 0 -316.5 122.5t-121.5 316.5zM350 422q0 -86 63.5 -146.5t155.5 -60.5q45 0 84.5 18.5t81.5 61.5l-144 159q-27 31 -66 78l-64 78 q-57 -33 -84 -78.5t-27 -109.5zM442 1174q0 -31 4 -55t16 -58q9 -26 24 -57t34 -60q74 38 120 106.5t46 133.5q0 71 -30 110t-87 39q-58 0 -92.5 -42.5t-34.5 -116.5z" />
<glyph unicode="'" horiz-adv-x="334" d="M86 879v557h164v-557h-164z" />
<glyph unicode="(" horiz-adv-x="664" d="M90 664q0 230 69.5 440t211.5 403h231q-143 -203 -213 -410t-70 -433q0 -224 69 -431t214 -411h-231q-140 193 -211 403q-34 103 -52 213.5t-18 225.5z" />
<glyph unicode=")" horiz-adv-x="664" d="M51 -178q143 203 213 410t70 432t-69 432t-214 411h234q138 -189 208 -400.5t70 -442.5t-69 -440t-209 -402h-234z" />
<glyph unicode="*" horiz-adv-x="1024" d="M78 1098l65 196l320 -164l-47 359h192l-47 -359l320 164l65 -196l-354 -62l254 -254l-168 -125l-166 322l-166 -322l-168 125l254 254z" />
<glyph unicode="+" horiz-adv-x="1706" d="M254 528v166h514v527h170v-527h514v-166h-514v-528h-170v528h-514z" />
<glyph unicode="," horiz-adv-x="621" d="M170 6v291h281v-309l-138 -293h-129l99 311h-113z" />
<glyph unicode="-" horiz-adv-x="676" d="M102 426v221h459v-221h-459z" />
<glyph unicode="." horiz-adv-x="621" d="M170 0v297h281v-297h-281z" />
<glyph unicode="/" horiz-adv-x="559" d="M-100 -190l551 1697h155l-551 -1697h-155z" />
<glyph unicode="0" d="M86 741q0 377 135 571.5t400 194.5q262 0 398 -194.5t136 -571.5q0 -378 -135.5 -572t-398.5 -194q-264 0 -399.5 194t-135.5 572zM350 741q0 -262 69.5 -399t201.5 -137q131 0 199.5 135.5t68.5 400.5q0 268 -68 403.5t-200 135.5q-131 0 -201 -137.5t-70 -401.5z" />
<glyph unicode="1" d="M244 1212v174q103 21 191 51q43 15 81.5 32t75.5 38h170v-1298h231v-209h-723v209h232v1020q-33 0 -66 -1t-66 -4q-35 0 -64 -3q-2 0 -62 -9z" />
<glyph unicode="2" d="M109 0v268q49 83 135 170q80 81 262 224q328 253 328 419q0 91 -57.5 145t-155.5 54q-101 0 -168.5 -62.5t-81.5 -168.5l-254 47q36 191 172 301t342 110q211 0 342 -121t131 -317q0 -138 -80.5 -256t-288.5 -274l-110 -81q-210 -151 -246 -222h717v-236h-987z" />
<glyph unicode="3" d="M45 268l213 131q63 -99 137.5 -146.5t165.5 -47.5q112 0 184 65.5t72 165.5q0 121 -96.5 181.5t-294.5 60.5h-49v223l23 -2h38q82 0 144.5 13t106.5 40q87 54 87 156q0 82 -59 132t-156 50q-84 0 -154 -37t-120 -110l-183 143q74 106 196.5 163.5t274.5 57.5 q209 0 335 -103t126 -274q0 -114 -54.5 -196.5t-162.5 -132.5q127 -36 196 -135q34 -48 51 -107.5t17 -134.5q0 -206 -135.5 -327.5t-372.5 -121.5q-182 0 -315 73t-215 220z" />
<glyph unicode="4" d="M41 340v266l635 883h276v-934h213v-215h-213v-352h-247v352h-664zM244 553h465v645z" />
<glyph unicode="5" d="M102 256l232 113q40 -80 107 -123t155 -43q115 0 189.5 87.5t74.5 225.5q0 117 -68.5 190.5t-181.5 73.5q-73 0 -131 -33.5t-94 -99.5l-211 49l62 789h794v-238h-596l-16 -332q44 42 106 63t146 21q204 0 332 -136.5t128 -358.5q0 -244 -142.5 -386.5t-387.5 -142.5 q-172 0 -298 71.5t-200 209.5z" />
<glyph unicode="6" d="M102 664q0 390 166.5 616.5t452.5 226.5q116 0 210 -27.5t173 -84.5l-113 -201q-77 47 -142 70q-31 10 -64 16t-66 6q-143 0 -241 -123q-50 -63 -77 -143q-30 -87 -30 -184q71 59 151 87.5t170 28.5q197 0 324 -133t127 -338q0 -238 -137 -372t-379 -134 q-254 0 -389.5 177.5t-135.5 511.5zM363 550q0 -80 20.5 -145t57.5 -114q72 -92 194 -92q108 0 178 73t70 187q0 124 -68.5 199t-181.5 75q-95 0 -168 -48.5t-102 -134.5z" />
<glyph unicode="7" d="M115 1241v244h1005v-164l-592 -1333h-290l573 1253h-696z" />
<glyph unicode="8" d="M76 387q0 132 70 229.5t219 169.5q-119 69 -174.5 152t-55.5 201q0 168 129 268t354 100q229 0 357.5 -101.5t128.5 -281.5q0 -110 -57 -195t-168 -136q144 -75 211 -171.5t67 -228.5q0 -195 -146.5 -306.5t-408.5 -111.5q-246 0 -386 110t-140 302zM346 397 q0 -90 72.5 -146t189.5 -56q131 0 208 54.5t77 149.5q0 80 -71.5 147.5t-217.5 123.5q-127 -42 -192.5 -112t-65.5 -161zM395 1139q0 -87 59 -144.5t175 -87.5q113 36 166 90t53 131q0 79 -59 124.5t-162 45.5q-108 0 -170 -42.5t-62 -116.5z" />
<glyph unicode="9" d="M78 1001q0 238 137 372t379 134q249 0 386.5 -179.5t137.5 -508.5q0 -391 -166.5 -617.5t-451.5 -226.5q-113 0 -209 28.5t-172 84.5l110 201q75 -46 142 -71q65 -21 131 -21q142 0 239 124q50 64 79.5 147t29.5 181q-71 -58 -150.5 -87.5t-171.5 -29.5 q-194 0 -322 132.5t-128 336.5zM338 1024q0 -125 68.5 -199.5t181.5 -74.5q96 0 169 50.5t101 133.5q0 82 -20 146t-59 114q-71 92 -193 92q-108 0 -178 -73.5t-70 -188.5z" />
<glyph unicode=":" horiz-adv-x="668" d="M168 0v287h281v-287h-281zM168 618v287h281v-287h-281z" />
<glyph unicode=";" horiz-adv-x="668" d="M168 6v291h281v-309l-138 -293h-129l99 311h-113zM168 618v287h281v-287h-281z" />
<glyph unicode="&#x3c;" horiz-adv-x="1706" d="M264 530v160l1178 486v-185l-934 -381l934 -381v-182z" />
<glyph unicode="=" horiz-adv-x="1706" d="M254 322v165h1198v-165h-1198zM254 733v168h1198v-168h-1198z" />
<glyph unicode="&#x3e;" horiz-adv-x="1706" d="M264 47v182l934 381l-934 381v185l1178 -486v-160z" />
<glyph unicode="?" horiz-adv-x="897" d="M23 1184q33 152 142 237.5t269 85.5q177 0 282 -87t105 -234q0 -141 -144 -309l-56 -68q-54 -71 -74.5 -129.5t-20.5 -132.5v-29q0 -12 2 -18h-237q0 19 -2 30v48q0 104 22.5 173.5t81.5 145.5l42 53q120 150 120 221q0 55 -36 91t-91 36q-64 0 -105 -44t-67 -142zM268 0 v295h285v-295h-285z" />
<glyph unicode="@" horiz-adv-x="2048" d="M98 522q0 166 51.5 314t153.5 272q146 178 353 271.5t460 93.5q167 0 316 -45.5t254 -127.5q133 -103 198.5 -235.5t65.5 -300.5q0 -163 -65 -303t-185 -236q-69 -54 -150 -84q-43 -14 -83 -21t-85 -7q-105 0 -156.5 40.5t-51.5 125.5v4q-54 -86 -128 -127t-176 -41 q-151 0 -232 87t-81 249q0 231 138 394t333 163q89 0 149.5 -34t98.5 -108l55 107h154l-148 -586l-2 -12l-6 -37q0 -38 27 -61t69 -23q50 0 107 30t106 85q36 37 63 80.5t47 96.5q38 103 38 216q0 252 -187 410.5t-489 158.5q-139 0 -256 -30.5t-215 -94.5 q-180 -112 -278.5 -290.5t-98.5 -395.5q0 -312 210 -499t558 -187q166 0 323.5 48.5t291.5 142.5l67 -99q-147 -111 -317 -169t-357 -58q-192 0 -350.5 48t-281.5 142q-154 117 -232 275q-38 80 -57 168t-19 190zM741 444q0 -97 45 -150.5t129 -53.5q89 0 162.5 66 t100.5 173l55 228q-14 85 -62 130.5t-122 45.5q-125 0 -216.5 -128.5t-91.5 -310.5z" />
<glyph unicode="A" horiz-adv-x="1264" d="M8 0l449 1489h350l448 -1489h-280l-92 326h-514l-95 -326h-266zM436 563h379l-190 666z" />
<glyph unicode="B" horiz-adv-x="1352" d="M156 0v1489h540q244 0 372 -101t128 -294q0 -109 -52 -184t-165 -130q127 -42 189.5 -133t62.5 -229q0 -210 -136 -314t-413 -104h-526zM430 229h229q152 0 221.5 54t69.5 170q0 107 -68.5 162t-209.5 55h-242v-441zM430 893h229q131 0 196 45.5t65 138.5q0 96 -65 139.5 t-212 43.5h-213v-367z" />
<glyph unicode="C" horiz-adv-x="1266" d="M76 737q0 369 156.5 569.5t445.5 200.5q202 0 330.5 -99.5t171.5 -289.5l-258 -63q-27 107 -93.5 162t-166.5 55q-151 0 -226.5 -133t-75.5 -404q0 -261 75 -386.5t233 -125.5q102 0 178 59.5t106 161.5l258 -71q-54 -191 -195.5 -294.5t-352.5 -103.5q-290 0 -438 193 t-148 569z" />
<glyph unicode="D" horiz-adv-x="1405" d="M168 0v1489h455q344 0 521 -186.5t177 -552.5q0 -374 -177.5 -562t-531.5 -188h-444zM449 246h153q229 0 331.5 118.5t102.5 385.5q0 253 -105.5 372t-332.5 119h-149v-995z" />
<glyph unicode="E" horiz-adv-x="1233" d="M174 0v1489h967v-242h-688v-352h501v-238h-501v-403h718v-254h-997z" />
<glyph unicode="F" horiz-adv-x="1157" d="M166 0v1489h940v-242h-657v-350h497v-242h-497v-655h-283z" />
<glyph unicode="G" horiz-adv-x="1370" d="M76 760q0 352 162 549.5t454 197.5q200 0 334 -96t191 -281l-254 -63q-45 106 -113 156.5t-164 50.5q-159 0 -242.5 -134.5t-83.5 -396.5q0 -253 82.5 -387.5t235.5 -134.5q121 0 198.5 79.5t96.5 221.5h-279v234h555v-756h-198l-15 156q-68 -92 -165.5 -136.5 t-227.5 -44.5q-266 0 -416.5 207.5t-150.5 577.5z" />
<glyph unicode="H" horiz-adv-x="1460" d="M166 0v1489h280v-590h568v590h280v-1489h-280v647h-568v-647h-280z" />
<glyph unicode="I" horiz-adv-x="672" d="M195 0v1489h282v-1489h-282z" />
<glyph unicode="J" horiz-adv-x="901" d="M-14 182l207 156q25 -57 58 -85q34 -26 77 -26q65 0 96 45t31 150v1067h282v-1059q0 -235 -98 -345t-305 -110q-112 0 -199 51.5t-149 155.5z" />
<glyph unicode="K" horiz-adv-x="1352" d="M158 0v1489h278v-688l498 688h319l-419 -543l489 -946h-319l-357 705l-211 -269v-436h-278z" />
<glyph unicode="L" horiz-adv-x="1120" d="M164 0v1489h285v-1235h628v-254h-913z" />
<glyph unicode="M" horiz-adv-x="1733" d="M166 0v1489h401l215 -723q13 -41 26 -91t23 -94t18.5 -92t14.5 -94q8 35 19 82t21.5 86t25.5 93.5t31 105.5l219 727h385v-1489h-240v1249q-8 -36 -19 -81t-21.5 -83t-22.5 -81.5t-25 -83.5l-272 -920h-205l-264 920l-59 210l-29 119v-1249h-242z" />
<glyph unicode="N" horiz-adv-x="1460" d="M162 0v1489h299l428 -748q48 -87 91 -176q20 -41 40 -89q15 -35 37 -91q-12 74 -14 93t-2 48q0 32 -2.5 89.5t-2.5 72.5v801h260v-1489h-260l-465 768q-37 65 -80.5 157t-87.5 201q6 -43 10 -72.5t4 -61.5q0 -30 2.5 -90t2.5 -79v-823h-260z" />
<glyph unicode="O" horiz-adv-x="1389" d="M76 741q0 360 164 563t454 203t454.5 -202t164.5 -564q0 -357 -165 -561.5t-454 -204.5t-453.5 203.5t-164.5 562.5zM360 741q0 -253 85 -383.5t249 -130.5t249 131t85 383q0 256 -84.5 387.5t-249.5 131.5q-163 0 -248.5 -133t-85.5 -386z" />
<glyph unicode="P" horiz-adv-x="1298" d="M166 0v1489h532q263 0 392 -109t129 -333q0 -216 -126.5 -330.5t-367.5 -114.5h-276v-602h-283zM449 838h208q152 0 216.5 48.5t64.5 160.5q0 114 -63.5 162t-217.5 48h-208v-419z" />
<glyph unicode="Q" horiz-adv-x="1389" d="M76 741q0 360 164 563t454 203t454.5 -202t164.5 -564q0 -85 -8 -155.5t-27 -140.5q-35 -131 -102 -222q38 -40 83 -62q22 -11 44.5 -17.5t45.5 -6.5l1 -250h-29q-100 0 -174.5 39.5t-145.5 128.5q-66 -40 -141 -60q-38 -10 -77.5 -15t-88.5 -5q-289 0 -453.5 203.5 t-164.5 562.5zM360 741q0 -253 85 -383.5t249 -130.5q52 0 94.5 14.5t81.5 43.5q-29 47 -73 77q-20 14 -44.5 24t-54.5 17v254q46 0 85 -12t81 -36q71 -41 133 -126q14 35 23 98q4 31 6 63t2 77q0 267 -83.5 403t-250.5 136q-163 0 -248.5 -133t-85.5 -386z" />
<glyph unicode="R" horiz-adv-x="1366" d="M166 0v1489h504q142 0 246.5 -27t174.5 -83q138 -108 138 -335q0 -144 -70.5 -240.5t-204.5 -135.5l330 -668h-301l-287 604h-256v-604h-274zM440 840h244q136 0 199 50t63 157q0 105 -64 155.5t-198 50.5h-244v-413z" />
<glyph unicode="S" horiz-adv-x="1200" d="M55 336l254 113q59 -120 131 -174t172 -54q111 0 176.5 51t65.5 138q0 68 -48.5 115t-172.5 93l-49 18q-218 79 -303 134.5t-131 139.5t-46 190q0 180 135 292.5t351 112.5q189 0 315.5 -81.5t186.5 -243.5l-254 -93q-46 98 -110.5 144.5t-158.5 46.5q-91 0 -143.5 -43 t-52.5 -115q0 -112 257 -214q66 -25 70 -27q29 -12 54 -23q214 -90 292 -185.5t78 -248.5q0 -205 -135.5 -323.5t-370.5 -118.5q-204 0 -346 89.5t-217 266.5z" />
<glyph unicode="T" horiz-adv-x="1147" d="M41 1243v246h1065v-246h-391v-1243h-283v1243h-391z" />
<glyph unicode="U" horiz-adv-x="1460" d="M166 547v942h280v-954q0 -166 66.5 -240t216.5 -74q158 0 225.5 72t67.5 242v954h272v-987q0 -253 -147 -391q-73 -68 -176.5 -102t-241.5 -34q-283 0 -423 141.5t-140 430.5z" />
<glyph unicode="V" horiz-adv-x="1264" d="M12 1489h281l340 -1215l336 1215h282l-444 -1489h-350z" />
<glyph unicode="W" horiz-adv-x="1933" d="M29 1489h274l213 -856q12 -48 27 -135l32 -198q0 91 50 283l10 42l217 864h240l206 -856q12 -48 27 -135l33 -199q0 32 6 74q2 15 15 89t36 163l217 864h275l-383 -1489h-310l-186 745l-40 184q-15 78 -21 148q-15 -114 -16 -120q-9 -46 -13 -67q-12 -68 -14 -77 q-6 -28 -15 -63l-190 -750h-307z" />
<glyph unicode="X" horiz-adv-x="1165" d="M20 0l420 756l-399 733h301l246 -473l252 473h274l-389 -711l432 -778h-311l-266 539l-281 -539h-279z" />
<glyph unicode="Y" horiz-adv-x="1147" d="M4 1489h295l287 -619l282 619h275l-426 -899v-590h-281v588z" />
<glyph unicode="Z" horiz-adv-x="1120" d="M31 0v246l721 1001h-672v242h983v-234l-731 -1009h741v-246h-1042z" />
<glyph unicode="[" horiz-adv-x="670" d="M188 -160v1649h474v-127h-252v-1395h252v-127h-474z" />
<glyph unicode="\" horiz-adv-x="559" d="M-45 1507h154l550 -1697h-153z" />
<glyph unicode="]" horiz-adv-x="670" d="M8 -33h254v1395h-254v127h473v-1649h-473v127z" />
<glyph unicode="^" horiz-adv-x="2048" d="M418 899l497 561h218l495 -561h-207l-397 397l-399 -397h-207z" />
<glyph unicode="_" horiz-adv-x="1024" d="M0 -311h1024v-172h-1024v172z" />
<glyph unicode="`" horiz-adv-x="1024" d="M219 1556h258l197 -368h-142z" />
<glyph unicode="a" horiz-adv-x="1049" d="M63 274q0 175 147 277t462 141v84q0 58 -40 91q-20 16 -47 24t-65 8q-72 0 -132.5 -31t-102.5 -92l-172 109q66 104 169.5 156.5t241.5 52.5q185 0 289.5 -84t104.5 -234v-631v-34q3 -18 5 -39.5t11 -71.5h-242l-22 94q-35 -26 -72.5 -45.5t-80.5 -34.5q-81 -26 -167 -26 q-134 0 -210.5 76t-76.5 210zM313 295q0 -53 30 -84t85 -31q61 0 119 27.5t117 85.5v229q-185 -24 -268 -79t-83 -148z" />
<glyph unicode="b" horiz-adv-x="1118" d="M123 0l9 148l3 102v1239h248v-518q57 64 119.5 93.5t142.5 29.5q180 0 295 -154t115 -403q0 -247 -116.5 -402t-301.5 -155q-88 0 -157 32t-134 103l-27 -115h-196zM383 285q48 -47 94 -69.5t96 -22.5q109 0 168.5 89.5t59.5 254.5q0 163 -60 255.5t-166 92.5 q-49 0 -94 -21.5t-98 -68.5v-510z" />
<glyph unicode="c" horiz-adv-x="995" d="M57 537q0 258 123.5 406.5t339.5 148.5q149 0 255.5 -71.5t156.5 -207.5l-213 -92q-29 85 -73 123.5t-109 38.5q-116 0 -171 -88.5t-55 -272.5q0 -164 51 -245.5t158 -81.5q74 0 129.5 39t95.5 122l197 -104q-54 -133 -162 -202.5t-260 -69.5q-226 0 -344.5 141.5 t-118.5 415.5z" />
<glyph unicode="d" horiz-adv-x="1118" d="M63 537q0 248 114.5 402.5t295.5 154.5q82 0 143 -28.5t119 -94.5v518h248v-1239l3 -102l9 -148h-196l-27 115q-58 -70 -127.5 -102.5t-161.5 -32.5q-185 0 -302.5 155t-117.5 402zM319 537q0 -165 60 -254.5t168 -89.5q48 0 92.5 21t95.5 71v510q-53 49 -97.5 69.5 t-92.5 20.5q-105 0 -165.5 -92t-60.5 -256z" />
<glyph unicode="e" horiz-adv-x="1014" d="M59 535q0 264 120 411.5t331 147.5t327.5 -143t116.5 -402l-1 -28l-1 -27l-643 -1q0 -150 58.5 -227.5t169.5 -77.5q70 0 120.5 32t98.5 106l186 -115q-60 -113 -170 -172t-258 -59q-214 0 -334.5 146t-120.5 409zM313 676h392q0 106 -51.5 166.5t-143.5 60.5 q-85 0 -138 -60q-27 -31 -43 -73t-16 -94z" />
<glyph unicode="f" horiz-adv-x="616" d="M2 866v207h150v166q0 129 80.5 199.5t228.5 70.5l73 -3l78 -9v-213l-32 3l-48 1q-71 0 -101 -27q-28 -28 -28 -102v-86h203v-207h-196v-866h-258v866h-150z" />
<glyph unicode="g" horiz-adv-x="1020" d="M33 -121q0 72 43.5 118t142.5 79q-76 37 -110 75q-31 37 -31 89q0 57 41 109.5t119 92.5q-74 45 -112 116t-38 165q0 165 113 269t295 104q76 0 141.5 -21.5t126.5 -68.5q39 51 88 76.5t109 25.5l22 -1l14 -1v-188h-5l-44 4q-30 0 -51 -7q-15 -4 -22 -7.5t-21 -12.5 q24 -34 36.5 -82.5t12.5 -110.5q0 -155 -108.5 -248.5t-292.5 -93.5l-63 3q-31 3 -54 10q-34 -14 -52 -32t-18 -40q0 -32 53.5 -53t152.5 -21l77 -6q108 0 191 -23q72 -20 120 -55q82 -61 82 -200q0 -161 -130 -246.5t-374 -85.5q-224 0 -339 68t-115 200zM274 -90 q0 -53 57 -86t152 -33q128 0 203.5 36.5t75.5 96.5q0 42 -34 63q-17 10 -45 16.5t-64 6.5l-236 13q-57 -27 -84 -54q-25 -28 -25 -59zM328 721q0 -78 46 -124q23 -22 54 -33t74 -11q79 0 126.5 47t47.5 125t-50.5 127t-129.5 49q-75 0 -121.5 -49.5t-46.5 -130.5z" />
<glyph unicode="h" horiz-adv-x="1130" d="M135 0v1489h252v-535q82 72 158.5 106t156.5 34q148 0 223.5 -87.5t75.5 -261.5v-745h-251v696q0 102 -29.5 146.5t-95.5 44.5q-57 0 -113.5 -28.5t-124.5 -90.5v-768h-252z" />
<glyph unicode="i" horiz-adv-x="524" d="M135 0v1073h254v-1073h-254zM135 1249v240h254v-240h-254z" />
<glyph unicode="j" horiz-adv-x="551" d="M-20 -158l34 -4l23 -2q71 0 97 28.5t26 112.5v1096h254v-1132q0 -170 -69.5 -250t-215.5 -80q-19 0 -38.5 1t-38.5 4q-15 0 -33 3.5t-39 9.5v213zM160 1249v240h254v-240h-254z" />
<glyph unicode="k" horiz-adv-x="1026" d="M135 0v1489h250v-850l330 434h280l-317 -381l344 -692h-277l-237 492l-123 -146v-346h-250z" />
<glyph unicode="l" horiz-adv-x="524" d="M135 0v1489h254v-1489h-254z" />
<glyph unicode="m" horiz-adv-x="1700" d="M135 0v1073h234v-125q62 72 138 109t165 37q94 0 159 -39t105 -121q83 83 165.5 121.5t180.5 38.5q133 0 210 -72.5t77 -200.5v-821h-254v739q0 70 -30.5 108t-86.5 38q-59 0 -115.5 -27.5t-109.5 -83.5v-774h-248v711q0 90 -27 132t-84 42q-60 0 -121 -29.5t-106 -83.5 v-772h-252z" />
<glyph unicode="n" horiz-adv-x="1128" d="M133 0v1073h234v-127q100 81 176 114.5t155 33.5q150 0 225.5 -88t75.5 -261v-745h-254v696q0 104 -27.5 147.5t-94.5 43.5q-57 0 -114.5 -28.5t-123.5 -90.5v-768h-252z" />
<glyph unicode="o" horiz-adv-x="1034" d="M57 537q0 261 121.5 409t337.5 148t337.5 -148t121.5 -409t-122 -409t-337 -148q-214 0 -336.5 148t-122.5 409zM313 537q0 -170 51 -255t152 -85t152 84t51 256t-50 254.5t-153 82.5q-102 0 -152.5 -84.5t-50.5 -252.5z" />
<glyph unicode="p" horiz-adv-x="1118" d="M135 -389v1462h184l27 -117q69 73 137 105.5t154 32.5q185 0 301.5 -155t116.5 -402q0 -249 -114.5 -403t-295.5 -154q-82 0 -142.5 28.5t-119.5 93.5v-491h-248zM383 276q26 -23 51 -40.5t47 -28.5q45 -21 94 -21q104 0 165 93t61 258q0 162 -59.5 253t-168.5 91 q-49 0 -94 -22t-96 -73v-510z" />
<glyph unicode="q" horiz-adv-x="1118" d="M63 537q0 246 117 401.5t303 155.5q89 0 154 -31t135 -107l27 117h196l-9 -152l-3 -100v-1210h-248v491q-58 -64 -120 -93t-142 -29q-179 0 -294.5 153t-115.5 404zM319 537q0 -165 60 -258t166 -93q47 0 91 20.5t99 69.5v510q-50 50 -96 73q-21 10 -44.5 16t-47.5 6 q-108 0 -168 -90t-60 -254z" />
<glyph unicode="r" horiz-adv-x="705" d="M135 0v1073h242v-178q52 99 119 148t147 49l20 -1l13 -2v-264h-12q-86 0 -156 -43.5t-115 -124.5v-657h-258z" />
<glyph unicode="s" horiz-adv-x="901" d="M45 195l172 135q60 -79 121.5 -116.5t124.5 -37.5q70 0 109.5 32t39.5 87q0 80 -169 143q-21 7 -27 11q-199 74 -267.5 146.5t-68.5 184.5q0 137 102.5 225.5t266.5 88.5q111 0 198.5 -39.5t163.5 -124.5l-160 -139q-52 55 -103.5 81.5t-105.5 26.5q-63 0 -100 -28 t-37 -78q0 -60 169 -123l71 -27q171 -66 233 -139.5t62 -196.5q0 -149 -102.5 -239.5t-272.5 -90.5q-133 0 -234 52.5t-186 165.5z" />
<glyph unicode="t" horiz-adv-x="664" d="M27 864v209h139v344h254v-344h209v-209h-209v-542q0 -79 21.5 -102t82.5 -23h18h16q12 2 17 2l54 6v-209q-20 -4 -50 -8t-47 -6q-22 0 -63 -2.5t-51 -2.5q-130 0 -191 60t-61 192v635h-139z" />
<glyph unicode="u" horiz-adv-x="1128" d="M129 326v747h254v-696q0 -103 28.5 -148t94.5 -45q55 0 113 29q31 16 59.5 37.5t64.5 54.5v768h252v-1073h-233v125q-95 -77 -173.5 -111t-160.5 -34q-148 0 -223.5 86.5t-75.5 259.5z" />
<glyph unicode="v" horiz-adv-x="979" d="M8 1073h252l176 -579l20 -76l29 -141q5 44 16.5 94.5t30.5 108.5l5 14l176 579h252l-353 -1073h-250z" />
<glyph unicode="w" horiz-adv-x="1518" d="M31 1073h248l143 -522l18 -94l19 -133q0 25 1.5 37.5t6.5 39.5t11.5 55t15.5 58l147 559h233l142 -522l20 -101l19 -126q5 54 13 100.5t19 89.5l148 559h250l-314 -1073h-225l-133 465q-22 78 -34.5 134.5t-20.5 113.5q-5 -29 -10 -61.5t-16 -82.5l-21 -93l-142 -476 h-223z" />
<glyph unicode="x" horiz-adv-x="924" d="M10 0l322 563l-299 510h276l158 -311l164 311h250l-291 -512l319 -561h-276l-176 371l-193 -371h-254z" />
<glyph unicode="y" horiz-adv-x="979" d="M8 1073h254l236 -704l219 704h248l-336 -1014q-96 -288 -184.5 -368t-249.5 -80h-35q-15 3 -31 5t-47 11v211l52 -9l52 -3q84 0 130.5 46.5t68.5 156.5z" />
<glyph unicode="z" horiz-adv-x="920" d="M41 0v182l510 688h-467v203h782v-180l-508 -680h508v-213h-825z" />
<glyph unicode="{" horiz-adv-x="1024" d="M162 442v179l21 -2l22 -1q126 0 178.5 59t52.5 202v247q0 146 22.5 206.5t80.5 94.5q41 26 107.5 38t182.5 12h45v-179l-24 1l-23 1q-107 0 -146.5 -41.5t-39.5 -173.5v-241q0 -155 -43.5 -220t-159.5 -94q113 -27 158 -92.5t45 -220.5v-240q0 -132 39.5 -174.5 t148.5 -42.5l22 1l23 1v-176h-63q-101 0 -165.5 12t-106.5 37q-56 32 -79.5 95.5t-23.5 203.5v248q0 144 -52 203t-179 59l-22 -1z" />
<glyph unicode="|" horiz-adv-x="1024" d="M424 -483v2048h178v-2048h-178z" />
<glyph unicode="}" horiz-adv-x="1024" d="M152 -238l23 -1l22 -1q108 0 147 42t39 175v240q0 153 45 219t160 94q-113 27 -159 93t-46 221v241q0 132 -38 173.5t-146 41.5l-23 -1l-24 -1v179h45q113 0 179 -11.5t109 -38.5q56 -33 80 -95q11 -30 17 -81.5t6 -124.5v-247q0 -144 52 -202.5t179 -58.5l21 1l22 2 v-179l-22 1l-21 1q-126 0 -178.5 -59.5t-52.5 -202.5v-248q0 -145 -22.5 -204.5t-80.5 -94.5q-41 -25 -107 -37t-181 -12h-45v176z" />
<glyph unicode="~" horiz-adv-x="1706" d="M178 434v187q102 70 200 106.5t187 36.5q60 0 123.5 -12t170.5 -48l42 -15q166 -58 250 -58q85 0 177.5 37t201.5 116v-184q-100 -69 -196 -105t-185 -36q-35 0 -49.5 1.5t-43.5 6.5q-46 9 -98 27l-76 26q-213 74 -319 74q-83 0 -175.5 -38t-209.5 -122z" />
<glyph unicode="&#xa0;" />
<glyph unicode="&#xa1;" horiz-adv-x="664" d="M176 0l53 987h191l53 -987h-297zM186 1194v295h275v-295h-275z" />
<glyph unicode="&#xa2;" d="M166 555q0 261 124.5 409t342.5 148h27t36 -4q33 -3 37 -4q17 -5 24 -6l74 215h136l-95 -266q56 -40 101 -96q20 -24 37.5 -53.5t33.5 -63.5l-217 -92q-6 15 -9.5 24.5t-10.5 20.5q-10 23 -23 40l-218 -614l28 -5l27 -1q73 0 129 40t104 128l203 -107q-63 -134 -176 -201 t-271 -67l-69 1q-14 0 -22 1t-23 4l-86 -250h-136l107 303q-110 75 -162.5 196t-52.5 300zM412 567q0 -106 13 -171q7 -35 17 -60.5t27 -48.5l217 610l-38 6l-30 2q-94 0 -151 -91q-27 -45 -41 -106.5t-14 -140.5z" />
<glyph unicode="&#xa3;" d="M66 641v190h198l-26 146q-9 62 -9 106q0 192 122 308t323 116q220 0 339.5 -114.5t119.5 -325.5v-6h-252q0 103 -51 162t-140 59q-93 0 -144.5 -51.5t-51.5 -147.5l1 -45l7 -62l20 -145h285v-190h-262l1 -28l1 -42q0 -73 -11.5 -139t-35.5 -119q60 -45 121 -69.5 t118 -24.5q89 0 134 48.5t45 150.5v28h249l1 -19l1 -32q0 -199 -100.5 -308.5t-284.5 -109.5q-112 0 -211 34.5t-188 103.5q-50 -60 -125.5 -93.5t-183.5 -44.5v256q108 24 159.5 93.5t51.5 191.5q0 8 -1 26.5t-4 47.5l-4 49h-212z" />
<glyph unicode="&#xa4;" d="M76 432l203 205q-39 53 -60 115q-10 32 -15 63.5t-5 69.5q0 39 4 67t16 64q20 63 60 117l-203 204l92 93l203 -203q53 40 116 61t134 21q69 0 133.5 -20.5t117.5 -61.5l203 203l94 -93l-204 -204q19 -26 33.5 -54.5t25.5 -62.5q20 -63 20 -131q0 -39 -4 -68t-16 -65 q-20 -63 -59 -115l204 -205l-94 -92l-203 205q-55 -40 -117.5 -61t-131.5 -21q-75 0 -137.5 21t-114.5 61l-203 -205zM332 885q0 -119 84 -204t207 -85q119 0 204.5 84.5t85.5 204.5q0 119 -85 205t-205 86t-205.5 -86.5t-85.5 -204.5z" />
<glyph unicode="&#xa5;" d="M55 600v133h375l-80 166h-295v131h232l-217 455h276l287 -641l282 641h256l-215 -455h228v-131h-289l-82 -166h371v-133h-439v-600h-249v600h-441z" />
<glyph unicode="&#xa6;" horiz-adv-x="1024" d="M424 -350v758h178v-758h-178zM424 674v758h178v-758h-178z" />
<glyph unicode="&#xa7;" horiz-adv-x="1024" d="M104 793q0 95 59 159t163 84q-54 60 -78.5 112t-24.5 107q0 111 80 181.5t205 70.5q98 0 178 -40.5t143 -123.5l-141 -104q-49 56 -88.5 81.5t-75.5 25.5q-42 0 -72 -27.5t-30 -69.5q0 -32 17 -60t81 -93l215 -215q96 -93 138 -170.5t42 -155.5q0 -98 -54 -156.5 t-165 -79.5q54 -54 80.5 -115t26.5 -128q0 -126 -80 -199.5t-215 -73.5q-97 0 -181.5 46.5t-152.5 136.5l141 106q53 -62 96 -90.5t83 -28.5q50 0 80 29.5t30 77.5q0 36 -21 73t-100 119l-204 213q-101 104 -138 171t-37 137zM295 817q0 -35 29.5 -80t109.5 -127 q95 -96 137 -123.5t80 -27.5q30 0 52 23.5t22 56.5q0 31 -25.5 72t-115.5 134q-82 87 -128 120.5t-81 33.5q-33 0 -56.5 -23.5t-23.5 -58.5z" />
<glyph unicode="&#xa8;" horiz-adv-x="1024" d="M225 1247v244h226v-244h-226zM573 1247v244h226v-244h-226z" />
<glyph unicode="&#xa9;" horiz-adv-x="1706" d="M113 731q0 143 57 279.5t162.5 243t236.5 161.5t283 55t286 -54.5t239.5 -161t160.5 -240.5t55 -283q0 -154 -55 -286q-27 -66 -66.5 -124.5t-91.5 -109.5q-107 -105 -243.5 -163t-284.5 -58q-76 0 -143 13t-137 43q-134 57 -240 162t-162.5 241t-56.5 282zM223 731 q0 -126 48 -240.5t138 -203.5t204.5 -138t240.5 -49q124 0 238 47.5t211 141.5q89 88 135.5 201t46.5 241q0 131 -46.5 244t-135.5 202.5t-204.5 137t-244.5 47.5q-131 0 -243 -46t-201 -136.5t-138 -207t-49 -241.5zM457 725q0 207 109.5 331t291.5 124q148 0 243 -77 q49 -39 77 -89.5t28 -110.5h-166q-9 74 -60 114q-25 20 -56.5 30t-73.5 10q-98 0 -154.5 -86.5t-56.5 -239.5q0 -151 57.5 -234t163.5 -83q80 0 128.5 43.5t60.5 124.5h165q0 -65 -27.5 -120t-79.5 -97q-100 -82 -253 -82q-183 0 -290 119t-107 323z" />
<glyph unicode="&#xaa;" horiz-adv-x="786" d="M47 930q0 123 109.5 193t347.5 100v57q0 42 -29.5 64t-83.5 22q-56 0 -100.5 -21.5t-77.5 -64.5l-129 76q49 71 128.5 109t180.5 38q140 0 217.5 -59t77.5 -164v-440l3 -47l9 -56h-180l-18 66q-53 -35 -116 -56q-59 -18 -124 -18q-101 0 -158 53.5t-57 147.5zM236 944 q0 -37 21.5 -58.5t64.5 -21.5q46 0 90 19.5t86 58.5v162q-135 -18 -198.5 -56.5t-63.5 -103.5z" />
<glyph unicode="&#xab;" horiz-adv-x="1122" d="M125 535l246 327h227l-246 -327l246 -326h-227zM528 535l246 327h227l-245 -327l245 -326h-227z" />
<glyph unicode="&#xac;" horiz-adv-x="1706" d="M254 696v166h1198v-502h-166v336h-1032z" />
<glyph unicode="&#xad;" horiz-adv-x="676" d="M102 426v221h459v-221h-459z" />
<glyph unicode="&#xae;" horiz-adv-x="1706" d="M113 731q0 146 57 283t166 246q103 103 234.5 156.5t281.5 53.5q155 0 288 -55.5t242 -165.5q101 -103 156 -236t55 -282q0 -154 -55.5 -288t-161.5 -236.5t-242.5 -159.5t-281.5 -57q-146 0 -282 57t-241.5 164t-160.5 241t-55 279zM223 731q0 -65 11 -122t36 -117 q46 -112 135 -201.5t205 -140t234 -50.5q131 0 247 47t209 138q87 84 136 197.5t49 238.5q0 133 -45.5 247t-136 205t-205.5 140t-244 49q-130 0 -240.5 -45.5t-200.5 -136t-140 -208.5t-50 -241zM551 330v829h319q172 0 261.5 -57t89.5 -168q0 -89 -48 -149.5t-137 -79.5 l185 -375h-199l-164 346h-129v-346h-178zM729 786h117q98 0 145 30.5t47 96.5q0 68 -48 101t-152 33h-109v-261z" />
<glyph unicode="&#xaf;" horiz-adv-x="1024" d="M225 1292v154h574v-154h-574z" />
<glyph unicode="&#xb0;" horiz-adv-x="674" d="M43 1163q0 125 86 211t209 86q119 0 207 -87t88 -210q0 -119 -87 -207t-210 -88t-208 86t-85 209zM152 1165q0 -74 54.5 -130t131.5 -56q76 0 130 54t54 132q0 75 -53.5 130t-130.5 55q-76 0 -131 -54t-55 -131z" />
<glyph unicode="&#xb1;" horiz-adv-x="1706" d="M254 14v168h1198v-168h-1198zM254 707v165h514v334h170v-334h514v-165h-514v-334h-170v334h-514z" />
<glyph unicode="&#xb2;" horiz-adv-x="819" d="M72 594v162q36 53 92.5 104t169.5 131q139 96 178 146t39 106q0 55 -38 87t-103 32q-68 0 -112.5 -37t-54.5 -102l-165 28q22 116 112 182t226 66q140 0 226.5 -73t86.5 -191q0 -84 -52.5 -154.5t-190.5 -162.5l-73 -49q-138 -92 -163 -134h473v-141h-651z" />
<glyph unicode="&#xb3;" horiz-adv-x="819" d="M31 756l139 78q41 -59 91 -89q26 -14 52 -21t58 -7q73 0 120.5 39t47.5 100q0 72 -64 108.5t-194 36.5h-33v133l16 -1h25q110 0 166.5 33t56.5 94q0 48 -38.5 78t-102.5 30q-57 0 -102 -21.5t-81 -66.5l-118 86q49 62 130 97.5t179 35.5q137 0 221 -62.5t84 -164.5 q0 -68 -36 -117t-107 -80q84 -23 129 -81t45 -146q0 -123 -90.5 -195.5t-245.5 -72.5q-122 0 -208 44t-140 132z" />
<glyph unicode="&#xb4;" horiz-adv-x="1024" d="M350 1188l197 368h258l-313 -368h-142z" />
<glyph unicode="&#xb5;" horiz-adv-x="1208" d="M-92 -430l297 1511h229l-125 -635l-9 -55l-3 -49q0 -97 46.5 -147t135.5 -50q121 0 193 88t112 293l109 555h225l-145 -739l-15 -82l-4 -51q0 -36 15 -51t53 -15h20q9 0 14 2l-32 -159q-28 -8 -69 -13l-81 -4q-74 0 -111.5 31.5t-37.5 93.5v15q-40 -66 -108 -104 t-146 -38q-42 0 -75.5 6t-62.5 20q-56 26 -97 83l-99 -506h-229z" />
<glyph unicode="&#xb6;" horiz-adv-x="1024" d="M55 1130q0 158 107 253.5t284 95.5h523v-99h-117v-1380h-129v1380h-168v-1380h-131v784q-83 0 -149.5 25.5t-119.5 75.5q-100 95 -100 245z" />
<glyph unicode="&#xb8;" horiz-adv-x="1024" d="M283 -309q28 -7 64 -15.5t92.5 -18t99.5 -9.5q50 0 75 17.5t25 55.5t-28.5 54t-92.5 16h-35q-15 0 -22 -2v211h102v-90h15q116 0 175.5 -48t59.5 -143q0 -99 -66.5 -149.5t-197.5 -50.5q-57 0 -120 11q-34 5 -70 13t-76 19v129z" />
<glyph unicode="&#xb9;" horiz-adv-x="819" d="M162 1321v104q76 14 129.5 31.5t99.5 42.5h113v-780h153v-125h-477v125h152v612l-86 -3q-18 0 -38.5 -1.5t-45.5 -5.5z" />
<glyph unicode="&#xba;" horiz-adv-x="776" d="M43 1112q0 185 91 288t253 103t253 -103t91 -288q0 -184 -91.5 -286.5t-252.5 -102.5q-159 0 -251.5 103.5t-92.5 285.5zM236 1112q0 -118 38 -178t113 -60q76 0 114 60t38 178q0 121 -37 179.5t-115 58.5q-75 0 -113 -60t-38 -178z" />
<glyph unicode="&#xbb;" horiz-adv-x="1122" d="M125 209l246 326l-246 327h227l246 -327l-246 -326h-227zM528 209l246 326l-246 327h228l245 -327l-245 -326h-228z" />
<glyph unicode="&#xbc;" horiz-adv-x="1907" d="M154 1333v97q62 9 117 26.5t102 40.5h106v-727h146v-117h-455v117h145v571q-10 0 -33 -1t-37 -1q-35 0 -91 -6zM440 -25l883 1532h141l-880 -1532h-144zM1151 190v150l399 494h174v-523h134v-121h-134v-196h-155v196h-418zM1278 309h293v363z" />
<glyph unicode="&#xbd;" horiz-adv-x="1907" d="M154 1333v97q62 9 117 26.5t102 40.5h106v-727h146v-117h-455v117h145v571q-10 0 -33 -1t-37 -1q-35 0 -91 -6zM440 -25l883 1532h141l-880 -1532h-144zM1192 0v150q35 50 85 94.5t167 126.5q135 91 170 137t35 98q0 51 -36 81t-97 30q-64 0 -106.5 -35t-51.5 -94 l-160 26q22 108 109 169t215 61q132 0 215.5 -68.5t83.5 -177.5q0 -77 -52 -144t-182 -153l-63 -40q-138 -88 -160 -130h451v-131h-623z" />
<glyph unicode="&#xbe;" horiz-adv-x="1907" d="M29 803l133 74q38 -54 86 -81.5t106 -27.5q68 0 114 36t46 93q0 69 -60 102t-186 33h-30v125h38q101 0 157 30.5t56 86.5q0 44 -37 74q-19 14 -42 21t-56 7q-51 0 -95 -21t-79 -63l-114 82q48 60 125 91.5t171 31.5q132 0 211.5 -58t79.5 -153q0 -63 -33.5 -108.5 t-103.5 -75.5q80 -19 123 -74.5t43 -136.5q0 -117 -85.5 -184.5t-234.5 -67.5q-116 0 -199 40.5t-134 123.5zM440 -25l883 1532h141l-880 -1532h-144zM1151 190v150l399 494h174v-523h134v-121h-134v-196h-155v196h-418zM1278 309h293v363z" />
<glyph unicode="&#xbf;" horiz-adv-x="897" d="M66 297q0 139 144 309l56 68q52 68 73 128.5t21 133.5l-1 29v18h237l1 -31l1 -47q0 -102 -23.5 -174t-80.5 -145l-42 -53q-120 -150 -120 -222q0 -55 36 -90t91 -35q65 0 106 44t66 141l233 -72q-33 -153 -142.5 -238.5t-268.5 -85.5q-176 0 -281.5 87t-105.5 235z M336 1194v295h285v-295h-285z" />
<glyph unicode="&#xc0;" horiz-adv-x="1264" d="M8 0l449 1489h350l448 -1489h-280l-92 326h-514l-95 -326h-266zM340 1972h258l197 -368h-142zM436 563h379l-190 666z" />
<glyph unicode="&#xc1;" horiz-adv-x="1264" d="M8 0l449 1489h350l448 -1489h-280l-92 326h-514l-95 -326h-266zM436 563h379l-190 666zM471 1604l197 368h258l-313 -368h-142z" />
<glyph unicode="&#xc2;" horiz-adv-x="1264" d="M8 0l449 1489h350l448 -1489h-280l-92 326h-514l-95 -326h-266zM318 1604l196 368h238l196 -368h-141l-174 217l-176 -217h-139zM436 563h379l-190 666z" />
<glyph unicode="&#xc3;" horiz-adv-x="1264" d="M8 0l449 1489h350l448 -1489h-280l-92 326h-514l-95 -326h-266zM316 1651q24 121 74 178t130 57q23 0 42 -4l16 -2t29 -8l92 -24l25 -7l30 -2q30 0 52 21t34 65h110q-26 -124 -77 -183.5t-131 -59.5h-15q-9 0 -20.5 1.5t-19 2.5t-19.5 6l-89 27l-35 7l-30 3 q-33 0 -54.5 -18.5t-33.5 -59.5h-110zM436 563h379l-190 666z" />
<glyph unicode="&#xc4;" horiz-adv-x="1264" d="M8 0l449 1489h350l448 -1489h-280l-92 326h-514l-95 -326h-266zM346 1663v244h226v-244h-226zM436 563h379l-190 666zM694 1663v244h226v-244h-226z" />
<glyph unicode="&#xc5;" horiz-adv-x="1264" d="M8 0l445 1460h86q-82 29 -128 93.5t-46 152.5q0 111 77 188.5t189 77.5q110 0 188 -77.5t78 -188.5q0 -90 -46.5 -154.5t-131.5 -91.5h92l444 -1460h-280l-92 326h-514l-95 -326h-266zM436 563h379l-190 666zM510 1706q0 -52 34 -87q36 -34 87 -34q52 0 87.5 35t35.5 86 t-36.5 87t-86.5 36q-52 0 -86.5 -35.5t-34.5 -87.5z" />
<glyph unicode="&#xc6;" horiz-adv-x="1821" d="M-61 0l661 1489h1126v-242h-641v-352h463v-238h-463v-403h670v-254h-936v326h-450l-140 -326h-290zM471 563h348v684h-59z" />
<glyph unicode="&#xc7;" horiz-adv-x="1266" d="M76 737q0 369 156.5 569.5t445.5 200.5q202 0 330.5 -99.5t171.5 -289.5l-258 -63q-27 107 -93.5 162t-166.5 55q-151 0 -226.5 -133t-75.5 -404q0 -261 75 -386.5t233 -125.5q102 0 178 59.5t106 161.5l258 -71q-54 -191 -196 -296q-66 -48 -144.5 -74.5t-167.5 -26.5 v-66h15q116 0 175.5 -48t59.5 -143q0 -99 -66.5 -149.5t-197.5 -50.5q-57 0 -120 11q-34 5 -70 13t-76 19v129q28 -7 64 -15.5t92.5 -18t99.5 -9.5q50 0 75 17.5t25 55.5t-28.5 54t-92.5 16h-35q-15 0 -22 -2v188q-118 0 -216 52q-90 48 -160 139q-148 193 -148 569z" />
<glyph unicode="&#xc8;" horiz-adv-x="1233" d="M174 0v1489h967v-242h-688v-352h501v-238h-501v-403h718v-254h-997zM379 1972h258l197 -368h-142z" />
<glyph unicode="&#xc9;" horiz-adv-x="1233" d="M174 0v1489h967v-242h-688v-352h501v-238h-501v-403h718v-254h-997zM510 1604l197 368h258l-313 -368h-142z" />
<glyph unicode="&#xca;" horiz-adv-x="1233" d="M174 0v1489h967v-242h-688v-352h501v-238h-501v-403h718v-254h-997zM357 1604l196 368h238l196 -368h-141l-174 217l-176 -217h-139z" />
<glyph unicode="&#xcb;" horiz-adv-x="1233" d="M174 0v1489h967v-242h-688v-352h501v-238h-501v-403h718v-254h-997zM385 1663v244h226v-244h-226zM733 1663v244h226v-244h-226z" />
<glyph unicode="&#xcc;" horiz-adv-x="672" d="M43 1972h258l197 -368h-142zM195 0v1489h282v-1489h-282z" />
<glyph unicode="&#xcd;" horiz-adv-x="672" d="M174 1604l197 368h258l-313 -368h-142zM195 0v1489h282v-1489h-282z" />
<glyph unicode="&#xce;" horiz-adv-x="672" d="M21 1604l196 368h238l196 -368h-141l-174 217l-176 -217h-139zM195 0v1489h282v-1489h-282z" />
<glyph unicode="&#xcf;" horiz-adv-x="672" d="M49 1663v244h226v-244h-226zM195 0v1489h282v-1489h-282zM397 1663v244h226v-244h-226z" />
<glyph unicode="&#xd0;" horiz-adv-x="1370" d="M76 760q0 352 162 549.5t454 197.5q200 0 334 -96t191 -281l-254 -63q-45 106 -113 156.5t-164 50.5q-159 0 -242.5 -134.5t-83.5 -396.5q0 -253 82.5 -387.5t235.5 -134.5q121 0 198.5 79.5t96.5 221.5h-279v234h555v-756h-198l-15 156q-68 -92 -165.5 -136.5 t-227.5 -44.5q-266 0 -416.5 207.5t-150.5 577.5zM377 1940h123q0 -38 12.5 -65t37.5 -48q46 -35 136 -35t133.5 35t50.5 113h123q0 -76 -22 -132.5t-63 -97.5q-75 -73 -222 -73q-148 0 -223 74q-40 40 -63 96t-23 133z" />
<glyph unicode="&#xd1;" horiz-adv-x="1460" d="M162 0v1489h299l428 -748q48 -87 91 -176q20 -41 40 -89q15 -35 37 -91q-12 74 -14 93t-2 48q0 32 -2.5 89.5t-2.5 72.5v801h260v-1489h-260l-465 768q-37 65 -80.5 157t-87.5 201q6 -43 10 -72.5t4 -61.5q0 -30 2.5 -90t2.5 -79v-823h-260zM414 1651q24 121 74 178 t130 57q23 0 42 -4l16 -2t29 -8l92 -24l25 -7l30 -2q30 0 52 21t34 65h110q-26 -124 -77 -183.5t-131 -59.5h-15q-9 0 -20.5 1.5t-19 2.5t-19.5 6l-89 27l-35 7l-30 3q-33 0 -54.5 -18.5t-33.5 -59.5h-110z" />
<glyph unicode="&#xd2;" horiz-adv-x="1389" d="M76 741q0 360 164 563t454 203t454.5 -202t164.5 -564q0 -357 -165 -561.5t-454 -204.5t-453.5 203.5t-164.5 562.5zM360 741q0 -253 85 -383.5t249 -130.5t249 131t85 383q0 256 -84.5 387.5t-249.5 131.5q-163 0 -248.5 -133t-85.5 -386zM401 1972h258l197 -368h-142z " />
<glyph unicode="&#xd3;" horiz-adv-x="1389" d="M76 741q0 360 164 563t454 203t454.5 -202t164.5 -564q0 -357 -165 -561.5t-454 -204.5t-453.5 203.5t-164.5 562.5zM360 741q0 -253 85 -383.5t249 -130.5t249 131t85 383q0 256 -84.5 387.5t-249.5 131.5q-163 0 -248.5 -133t-85.5 -386zM532 1604l197 368h258 l-313 -368h-142z" />
<glyph unicode="&#xd4;" horiz-adv-x="1389" d="M76 741q0 360 164 563t454 203t454.5 -202t164.5 -564q0 -357 -165 -561.5t-454 -204.5t-453.5 203.5t-164.5 562.5zM360 741q0 -253 85 -383.5t249 -130.5t249 131t85 383q0 256 -84.5 387.5t-249.5 131.5q-163 0 -248.5 -133t-85.5 -386zM379 1604l196 368h238 l196 -368h-141l-174 217l-176 -217h-139z" />
<glyph unicode="&#xd5;" horiz-adv-x="1389" d="M76 741q0 360 164 563t454 203t454.5 -202t164.5 -564q0 -357 -165 -561.5t-454 -204.5t-453.5 203.5t-164.5 562.5zM360 741q0 -253 85 -383.5t249 -130.5t249 131t85 383q0 256 -84.5 387.5t-249.5 131.5q-163 0 -248.5 -133t-85.5 -386zM377 1651q24 121 74 178 t130 57q23 0 42 -4l16 -2t29 -8l92 -24l25 -7l30 -2q30 0 52 21t34 65h110q-26 -124 -77 -183.5t-131 -59.5h-15q-9 0 -20.5 1.5t-19 2.5t-19.5 6l-89 27l-35 7l-30 3q-33 0 -54.5 -18.5t-33.5 -59.5h-110z" />
<glyph unicode="&#xd6;" horiz-adv-x="1389" d="M76 741q0 360 164 563t454 203t454.5 -202t164.5 -564q0 -357 -165 -561.5t-454 -204.5t-453.5 203.5t-164.5 562.5zM360 741q0 -253 85 -383.5t249 -130.5t249 131t85 383q0 256 -84.5 387.5t-249.5 131.5q-163 0 -248.5 -133t-85.5 -386zM407 1663v244h226v-244h-226z M755 1663v244h226v-244h-226z" />
<glyph unicode="&#xd7;" horiz-adv-x="1706" d="M287 152l458 458l-458 461l116 117l459 -459l461 459l117 -117l-459 -461l459 -458l-117 -119l-461 461l-459 -461z" />
<glyph unicode="&#xd8;" horiz-adv-x="1389" d="M70 -27l151 234q-71 105 -108 241.5t-37 303.5q0 347 165 553t443 206q105 0 186 -23t150 -71l115 176l161 -102l-133 -207q72 -90 111 -235.5t39 -327.5q0 -342 -168.5 -544t-456.5 -202q-99 0 -179.5 23.5t-146.5 71.5l-133 -201zM358 735q0 -74 10 -140 q4 -32 11.5 -65t19.5 -69l486 735q-38 32 -85.5 48t-101.5 16q-166 0 -253 -133.5t-87 -391.5zM500 295q38 -32 89 -51t107 -19q156 0 244 129t88 367q0 102 -10 179t-31 132z" />
<glyph unicode="&#xd9;" horiz-adv-x="1460" d="M166 547v942h280v-954q0 -166 66.5 -240t216.5 -74q158 0 225.5 72t67.5 242v954h272v-987q0 -253 -147 -391q-73 -68 -176.5 -102t-241.5 -34q-283 0 -423 141.5t-140 430.5zM438 1972h258l197 -368h-142z" />
<glyph unicode="&#xda;" horiz-adv-x="1460" d="M166 547v942h280v-954q0 -166 66.5 -240t216.5 -74q158 0 225.5 72t67.5 242v954h272v-987q0 -253 -147 -391q-73 -68 -176.5 -102t-241.5 -34q-283 0 -423 141.5t-140 430.5zM569 1604l197 368h258l-313 -368h-142z" />
<glyph unicode="&#xdb;" horiz-adv-x="1460" d="M166 547v942h280v-954q0 -166 66.5 -240t216.5 -74q158 0 225.5 72t67.5 242v954h272v-987q0 -253 -147 -391q-73 -68 -176.5 -102t-241.5 -34q-283 0 -423 141.5t-140 430.5zM416 1604l196 368h238l196 -368h-141l-174 217l-176 -217h-139z" />
<glyph unicode="&#xdc;" horiz-adv-x="1460" d="M166 547v942h280v-954q0 -166 66.5 -240t216.5 -74q158 0 225.5 72t67.5 242v954h272v-987q0 -253 -147 -391q-73 -68 -176.5 -102t-241.5 -34q-283 0 -423 141.5t-140 430.5zM444 1663v244h226v-244h-226zM792 1663v244h226v-244h-226z" />
<glyph unicode="&#xdd;" horiz-adv-x="672" d="M195 0v1489h282v-1489h-282zM219 1657v256h236v-256h-236z" />
<glyph unicode="&#xde;" horiz-adv-x="1200" d="M55 336l254 113q59 -120 131 -174t172 -54q111 0 176.5 51t65.5 138q0 68 -48.5 115t-172.5 93l-49 18q-218 79 -303 134.5t-131 139.5t-46 190q0 180 135 292.5t351 112.5q189 0 315.5 -81.5t186.5 -243.5l-254 -93q-46 98 -110.5 144.5t-158.5 46.5q-91 0 -143.5 -43 t-52.5 -115q0 -112 257 -214q66 -25 70 -27q29 -12 54 -23q214 -90 292 -185.5t78 -248.5q0 -205 -135 -324q-64 -55 -149.5 -86t-188.5 -31v-71h15q116 0 175.5 -48t59.5 -143q0 -99 -66.5 -149.5t-197.5 -50.5q-57 0 -120 11q-34 5 -70 13t-76 19v129q28 -7 64 -15.5 t92.5 -18t99.5 -9.5q50 0 75 17.5t25 55.5t-28.5 54t-92.5 16h-35q-15 0 -22 -2v194q-78 0 -145 22.5t-134 64.5q-140 89 -215 266z" />
<glyph unicode="&#xdf;" horiz-adv-x="1063" d="M135 0v1051q0 210 102 324t293 114t288 -103t97 -303q0 -111 -36 -181.5t-107 -94.5q114 -24 169.5 -124t55.5 -282q0 -201 -87.5 -311t-247.5 -110q-60 0 -108 14q-48 12 -89 39l59 182q24 -15 47 -25q24 -8 45 -8q60 0 90.5 61t30.5 179q0 144 -53 206q-26 30 -71 47.5 t-107 17.5v195q76 0 119 46q39 42 39 131q0 104 -36.5 156.5t-109.5 52.5q-65 0 -99 -45t-34 -135v-1094h-250z" />
<glyph unicode="&#xe0;" horiz-adv-x="1049" d="M63 274q0 175 147 277t462 141v84q0 58 -40 91q-20 16 -47 24t-65 8q-72 0 -132.5 -31t-102.5 -92l-172 109q66 104 169.5 156.5t241.5 52.5q185 0 289.5 -84t104.5 -234v-631v-34q3 -18 5 -39.5t11 -71.5h-242l-22 94q-35 -26 -72.5 -45.5t-80.5 -34.5q-81 -26 -167 -26 q-134 0 -210.5 76t-76.5 210zM246 1556h258l197 -368h-142zM313 295q0 -53 30 -84t85 -31q61 0 119 27.5t117 85.5v229q-185 -24 -268 -79t-83 -148z" />
<glyph unicode="&#xe1;" horiz-adv-x="1049" d="M63 274q0 175 147 277t462 141v84q0 58 -40 91q-20 16 -47 24t-65 8q-72 0 -132.5 -31t-102.5 -92l-172 109q66 104 169.5 156.5t241.5 52.5q185 0 289.5 -84t104.5 -234v-631v-34q3 -18 5 -39.5t11 -71.5h-242l-22 94q-35 -26 -72.5 -45.5t-80.5 -34.5q-81 -26 -167 -26 q-134 0 -210.5 76t-76.5 210zM313 295q0 -53 30 -84t85 -31q61 0 119 27.5t117 85.5v229q-185 -24 -268 -79t-83 -148zM377 1188l197 368h258l-313 -368h-142z" />
<glyph unicode="&#xe2;" horiz-adv-x="1049" d="M63 274q0 175 147 277t462 141v84q0 58 -40 91q-20 16 -47 24t-65 8q-72 0 -132.5 -31t-102.5 -92l-172 109q66 104 169.5 156.5t241.5 52.5q185 0 289.5 -84t104.5 -234v-631v-34q3 -18 5 -39.5t11 -71.5h-242l-22 94q-35 -26 -72.5 -45.5t-80.5 -34.5q-81 -26 -167 -26 q-134 0 -210.5 76t-76.5 210zM224 1188l196 368h238l196 -368h-141l-174 217l-176 -217h-139zM313 295q0 -53 30 -84t85 -31q61 0 119 27.5t117 85.5v229q-185 -24 -268 -79t-83 -148z" />
<glyph unicode="&#xe3;" horiz-adv-x="1049" d="M63 274q0 175 147 277t462 141v84q0 58 -40 91q-20 16 -47 24t-65 8q-72 0 -132.5 -31t-102.5 -92l-172 109q66 104 169.5 156.5t241.5 52.5q185 0 289.5 -84t104.5 -234v-631v-34q3 -18 5 -39.5t11 -71.5h-242l-22 94q-35 -26 -72.5 -45.5t-80.5 -34.5q-81 -26 -167 -26 q-134 0 -210.5 76t-76.5 210zM222 1235q24 121 74 178t130 57q23 0 42 -4l16 -2t29 -8l92 -24l25 -7l30 -2q30 0 52 21t34 65h110q-26 -124 -77 -183.5t-131 -59.5h-15q-9 0 -20.5 1.5t-19 2.5t-19.5 6l-89 27l-35 7l-30 3q-33 0 -54.5 -18.5t-33.5 -59.5h-110zM313 295 q0 -53 30 -84t85 -31q61 0 119 27.5t117 85.5v229q-185 -24 -268 -79t-83 -148z" />
<glyph unicode="&#xe4;" horiz-adv-x="1049" d="M63 274q0 175 147 277t462 141v84q0 58 -40 91q-20 16 -47 24t-65 8q-72 0 -132.5 -31t-102.5 -92l-172 109q66 104 169.5 156.5t241.5 52.5q185 0 289.5 -84t104.5 -234v-631v-34q3 -18 5 -39.5t11 -71.5h-242l-22 94q-35 -26 -72.5 -45.5t-80.5 -34.5q-81 -26 -167 -26 q-134 0 -210.5 76t-76.5 210zM252 1247v244h226v-244h-226zM313 295q0 -53 30 -84t85 -31q61 0 119 27.5t117 85.5v229q-185 -24 -268 -79t-83 -148zM600 1247v244h226v-244h-226z" />
<glyph unicode="&#xe5;" horiz-adv-x="1049" d="M63 274q0 175 147 277t462 141v84q0 58 -40 91q-20 16 -47 24t-65 8q-72 0 -132.5 -31t-102.5 -92l-172 109q66 104 169.5 156.5t241.5 52.5q185 0 289.5 -84t104.5 -234v-631v-34q3 -18 5 -39.5t11 -71.5h-242l-22 94q-35 -26 -72.5 -45.5t-80.5 -34.5q-81 -26 -167 -26 q-134 0 -210.5 76t-76.5 210zM293 1425q0 112 76.5 189.5t187.5 77.5q110 0 189 -78t79 -189t-77.5 -188.5t-190.5 -77.5q-111 0 -187.5 77.5t-76.5 188.5zM313 295q0 -53 30 -84t85 -31q61 0 119 27.5t117 85.5v229q-185 -24 -268 -79t-83 -148zM436 1425q0 -52 36 -87 t87 -35t86 36t35 86q0 51 -35 86t-86 35q-52 0 -87.5 -34t-35.5 -87z" />
<glyph unicode="&#xe6;" horiz-adv-x="1626" d="M59 268q0 172 153 277t468 145l4 72v8q0 61 -44.5 97t-117.5 36q-63 0 -124 -33.5t-107 -95.5l-185 111q81 110 180.5 159.5t235.5 49.5q100 0 172.5 -27.5t128.5 -85.5q60 57 134 85q38 14 78 21t89 7q213 0 328 -146.5t115 -415.5v-40l-647 -1q0 -73 15.5 -131.5 t45.5 -99.5q57 -80 162 -80q75 0 131.5 36t91.5 108l184 -115q-66 -114 -171 -171.5t-242 -57.5q-124 0 -207.5 38t-153.5 123q-91 -79 -191 -120t-212 -41q-148 0 -231 75.5t-83 212.5zM315 289q0 -55 34 -88q18 -15 41 -23t54 -8q49 0 104 27t130 90v231 q-191 -34 -277 -89.5t-86 -139.5zM924 674h391q0 52 -13.5 93t-41.5 74q-51 62 -138 62q-85 0 -139 -61q-28 -32 -43.5 -73.5t-15.5 -94.5z" />
<glyph unicode="&#xe7;" horiz-adv-x="995" d="M57 537q0 258 123.5 406.5t339.5 148.5q149 0 255.5 -71.5t156.5 -207.5l-213 -92q-29 85 -73 123.5t-109 38.5q-116 0 -171 -88.5t-55 -272.5q0 -164 51 -245.5t158 -81.5q74 0 129.5 39t95.5 122l197 -104q-54 -133 -163 -203q-51 -33 -107 -50.5t-123 -17.5v-71h15 q116 0 175.5 -48t59.5 -143q0 -99 -66.5 -149.5t-197.5 -50.5q-57 0 -120 11q-34 5 -70 13t-76 19v129q28 -7 64 -15.5t92.5 -18t99.5 -9.5q50 0 75 17.5t25 55.5t-28.5 54t-92.5 16h-35q-15 0 -22 -2v195q-172 19 -272 137q-118 142 -118 416z" />
<glyph unicode="&#xe8;" horiz-adv-x="1014" d="M59 535q0 264 120 411.5t331 147.5t327.5 -143t116.5 -402l-1 -28l-1 -27l-643 -1q0 -150 58.5 -227.5t169.5 -77.5q70 0 120.5 32t98.5 106l186 -115q-60 -113 -170 -172t-258 -59q-214 0 -334.5 146t-120.5 409zM235 1556h258l197 -368h-142zM313 676h392 q0 106 -51.5 166.5t-143.5 60.5q-85 0 -138 -60q-27 -31 -43 -73t-16 -94z" />
<glyph unicode="&#xe9;" horiz-adv-x="1014" d="M59 535q0 264 120 411.5t331 147.5t327.5 -143t116.5 -402l-1 -28l-1 -27l-643 -1q0 -150 58.5 -227.5t169.5 -77.5q70 0 120.5 32t98.5 106l186 -115q-60 -113 -170 -172t-258 -59q-214 0 -334.5 146t-120.5 409zM313 676h392q0 106 -51.5 166.5t-143.5 60.5 q-85 0 -138 -60q-27 -31 -43 -73t-16 -94zM366 1188l197 368h258l-313 -368h-142z" />
<glyph unicode="&#xea;" horiz-adv-x="1014" d="M59 535q0 264 120 411.5t331 147.5t327.5 -143t116.5 -402l-1 -28l-1 -27l-643 -1q0 -150 58.5 -227.5t169.5 -77.5q70 0 120.5 32t98.5 106l186 -115q-60 -113 -170 -172t-258 -59q-214 0 -334.5 146t-120.5 409zM213 1188l196 368h238l196 -368h-141l-174 217 l-176 -217h-139zM313 676h392q0 106 -51.5 166.5t-143.5 60.5q-85 0 -138 -60q-27 -31 -43 -73t-16 -94z" />
<glyph unicode="&#xeb;" horiz-adv-x="1014" d="M59 535q0 264 120 411.5t331 147.5t327.5 -143t116.5 -402l-1 -28l-1 -27l-643 -1q0 -150 58.5 -227.5t169.5 -77.5q70 0 120.5 32t98.5 106l186 -115q-60 -113 -170 -172t-258 -59q-214 0 -334.5 146t-120.5 409zM241 1247v244h226v-244h-226zM313 676h392 q0 106 -51.5 166.5t-143.5 60.5q-85 0 -138 -60q-27 -31 -43 -73t-16 -94zM589 1247v244h226v-244h-226z" />
<glyph unicode="&#xec;" horiz-adv-x="524" d="M-31 1556h258l197 -368h-142zM135 0v1073h254v-1073h-254z" />
<glyph unicode="&#xed;" horiz-adv-x="524" d="M100 1188l197 368h258l-313 -368h-142zM135 0v1073h254v-1073h-254z" />
<glyph unicode="&#xee;" horiz-adv-x="524" d="M-53 1188l196 368h238l196 -368h-141l-174 217l-176 -217h-139zM135 0v1073h254v-1073h-254z" />
<glyph unicode="&#xef;" horiz-adv-x="524" d="M-25 1247v244h226v-244h-226zM135 0v1073h254v-1073h-254zM323 1247v244h226v-244h-226z" />
<glyph unicode="&#xf0;" horiz-adv-x="1020" d="M33 -121q0 72 43.5 118t142.5 79q-76 37 -110 75q-31 37 -31 89q0 57 41 109.5t119 92.5q-74 45 -112 116t-38 165q0 165 113 269t295 104q76 0 141.5 -21.5t126.5 -68.5q39 51 88 76.5t109 25.5l22 -1l14 -1v-188h-5l-44 4q-30 0 -51 -7q-15 -4 -22 -7.5t-21 -12.5 q24 -34 36.5 -82.5t12.5 -110.5q0 -155 -108.5 -248.5t-292.5 -93.5l-63 3q-31 3 -54 10q-34 -14 -52 -32t-18 -40q0 -32 53.5 -53t152.5 -21l77 -6q108 0 191 -23q72 -20 120 -55q82 -61 82 -200q0 -161 -130 -246.5t-374 -85.5q-224 0 -339 68t-115 200zM201 1524h123 q0 -38 12.5 -65t37.5 -48q46 -35 136 -35t133.5 35t50.5 113h123q0 -76 -22 -132.5t-63 -97.5q-75 -73 -222 -73q-148 0 -223 74q-40 40 -63 96t-23 133zM274 -90q0 -53 57 -86t152 -33q128 0 203.5 36.5t75.5 96.5q0 42 -34 63q-17 10 -45 16.5t-64 6.5l-236 13 q-57 -27 -84 -54q-25 -28 -25 -59zM328 721q0 -78 46 -124q23 -22 54 -33t74 -11q79 0 126.5 47t47.5 125t-50.5 127t-129.5 49q-75 0 -121.5 -49.5t-46.5 -130.5z" />
<glyph unicode="&#xf1;" horiz-adv-x="1128" d="M133 0v1073h234v-127q100 81 176 114.5t155 33.5q150 0 225.5 -88t75.5 -261v-745h-254v696q0 104 -27.5 147.5t-94.5 43.5q-57 0 -114.5 -28.5t-123.5 -90.5v-768h-252zM248 1235q24 121 74 178t130 57q23 0 42 -4l16 -2t29 -8l92 -24l25 -7l30 -2q30 0 52 21t34 65h110 q-26 -124 -77 -183.5t-131 -59.5h-15q-9 0 -20.5 1.5t-19 2.5t-19.5 6l-89 27l-35 7l-30 3q-33 0 -54.5 -18.5t-33.5 -59.5h-110z" />
<glyph unicode="&#xf2;" horiz-adv-x="1034" d="M57 537q0 261 121.5 409t337.5 148t337.5 -148t121.5 -409t-122 -409t-337 -148q-214 0 -336.5 148t-122.5 409zM225 1556h258l197 -368h-142zM313 537q0 -170 51 -255t152 -85t152 84t51 256t-50 254.5t-153 82.5q-102 0 -152.5 -84.5t-50.5 -252.5z" />
<glyph unicode="&#xf3;" horiz-adv-x="1034" d="M57 537q0 261 121.5 409t337.5 148t337.5 -148t121.5 -409t-122 -409t-337 -148q-214 0 -336.5 148t-122.5 409zM313 537q0 -170 51 -255t152 -85t152 84t51 256t-50 254.5t-153 82.5q-102 0 -152.5 -84.5t-50.5 -252.5zM356 1188l197 368h258l-313 -368h-142z" />
<glyph unicode="&#xf4;" horiz-adv-x="1034" d="M57 537q0 261 121.5 409t337.5 148t337.5 -148t121.5 -409t-122 -409t-337 -148q-214 0 -336.5 148t-122.5 409zM203 1188l196 368h238l196 -368h-141l-174 217l-176 -217h-139zM313 537q0 -170 51 -255t152 -85t152 84t51 256t-50 254.5t-153 82.5q-102 0 -152.5 -84.5 t-50.5 -252.5z" />
<glyph unicode="&#xf5;" horiz-adv-x="1034" d="M57 537q0 261 121.5 409t337.5 148t337.5 -148t121.5 -409t-122 -409t-337 -148q-214 0 -336.5 148t-122.5 409zM201 1235q24 121 74 178t130 57q23 0 42 -4l16 -2t29 -8l92 -24l25 -7l30 -2q30 0 52 21t34 65h110q-26 -124 -77 -183.5t-131 -59.5h-15q-9 0 -20.5 1.5 t-19 2.5t-19.5 6l-89 27l-35 7l-30 3q-33 0 -54.5 -18.5t-33.5 -59.5h-110zM313 537q0 -170 51 -255t152 -85t152 84t51 256t-50 254.5t-153 82.5q-102 0 -152.5 -84.5t-50.5 -252.5z" />
<glyph unicode="&#xf6;" horiz-adv-x="1034" d="M57 537q0 261 121.5 409t337.5 148t337.5 -148t121.5 -409t-122 -409t-337 -148q-214 0 -336.5 148t-122.5 409zM231 1247v244h226v-244h-226zM313 537q0 -170 51 -255t152 -85t152 84t51 256t-50 254.5t-153 82.5q-102 0 -152.5 -84.5t-50.5 -252.5zM579 1247v244h226 v-244h-226z" />
<glyph unicode="&#xf7;" horiz-adv-x="1706" d="M254 528v166h1198v-166h-1198zM717 229q0 57 40.5 97.5t96.5 40.5q57 0 97 -40.5t40 -97.5q0 -56 -39.5 -95.5t-97.5 -39.5q-56 0 -96.5 39t-40.5 96zM717 989q0 57 40.5 98t96.5 41q57 0 97 -41.5t40 -97.5t-39.5 -95.5t-97.5 -39.5q-56 0 -96.5 39t-40.5 96z" />
<glyph unicode="&#xf8;" horiz-adv-x="1034" d="M57 537q0 264 123 410.5t348 146.5q52 0 96 -9q21 -4 42 -10t41 -16l77 143l144 -78l-90 -163q68 -77 103 -184q16 -51 25 -112t9 -128q0 -131 -30 -233t-92 -176q-122 -148 -337 -148q-66 0 -111.5 8t-85.5 28l-90 -168l-143 78l104 191q-65 74 -99 177t-34 243z M291 514q0 -60 6.5 -101t21.5 -81l293 532q-22 12 -46.5 18.5t-51.5 6.5q-114 0 -168.5 -90.5t-54.5 -284.5zM414 211q27 -14 55 -22q14 -3 26 -5t25 -2q114 0 169.5 90.5t55.5 274.5q0 59 -8.5 112t-25.5 99z" />
<glyph unicode="&#xf9;" horiz-adv-x="1128" d="M129 326v747h254v-696q0 -103 28.5 -148t94.5 -45q55 0 113 29q31 16 59.5 37.5t64.5 54.5v768h252v-1073h-233v125q-95 -77 -173.5 -111t-160.5 -34q-148 0 -223.5 86.5t-75.5 259.5zM272 1556h258l197 -368h-142z" />
<glyph unicode="&#xfa;" horiz-adv-x="1128" d="M129 326v747h254v-696q0 -103 28.5 -148t94.5 -45q55 0 113 29q31 16 59.5 37.5t64.5 54.5v768h252v-1073h-233v125q-95 -77 -173.5 -111t-160.5 -34q-148 0 -223.5 86.5t-75.5 259.5zM403 1188l197 368h258l-313 -368h-142z" />
<glyph unicode="&#xfb;" horiz-adv-x="1128" d="M129 326v747h254v-696q0 -103 28.5 -148t94.5 -45q55 0 113 29q31 16 59.5 37.5t64.5 54.5v768h252v-1073h-233v125q-95 -77 -173.5 -111t-160.5 -34q-148 0 -223.5 86.5t-75.5 259.5zM250 1188l196 368h238l196 -368h-141l-174 217l-176 -217h-139z" />
<glyph unicode="&#xfc;" horiz-adv-x="1128" d="M129 326v747h254v-696q0 -103 28.5 -148t94.5 -45q55 0 113 29q31 16 59.5 37.5t64.5 54.5v768h252v-1073h-233v125q-95 -77 -173.5 -111t-160.5 -34q-148 0 -223.5 86.5t-75.5 259.5zM278 1247v244h226v-244h-226zM626 1247v244h226v-244h-226z" />
<glyph unicode="&#xfd;" horiz-adv-x="524" d="M135 0v1073h254v-1073h-254z" />
<glyph unicode="&#xfe;" horiz-adv-x="901" d="M45 195l172 135q60 -79 121.5 -116.5t124.5 -37.5q70 0 109.5 32t39.5 87q0 80 -169 143q-21 7 -27 11q-199 74 -267.5 146.5t-68.5 184.5q0 137 102.5 225.5t266.5 88.5q111 0 198.5 -39.5t163.5 -124.5l-160 -139q-52 55 -103.5 81.5t-105.5 26.5q-63 0 -100 -28 t-37 -78q0 -60 169 -123l71 -27q171 -66 233 -139.5t62 -196.5q0 -149 -103 -240q-47 -41 -106 -65t-129 -24v-68h15q116 0 175.5 -48t59.5 -143q0 -99 -66.5 -149.5t-197.5 -50.5q-57 0 -120 11q-34 5 -70 13t-76 19v129q28 -7 64 -15.5t92.5 -18t99.5 -9.5q50 0 75 17.5 t25 55.5t-28.5 54t-92.5 16h-35q-15 0 -22 -2v191q-94 11 -169 49q-101 53 -186 166z" />
<glyph unicode="&#xff;" horiz-adv-x="979" d="M8 1073h254l236 -704l219 704h248l-336 -1014q-96 -288 -184.5 -368t-249.5 -80h-35q-15 3 -31 5t-47 11v211l52 -9l52 -3q84 0 130.5 46.5t68.5 156.5zM202 1247v244h226v-244h-226zM550 1247v244h226v-244h-226z" />
<glyph unicode="&#x152;" horiz-adv-x="1972" d="M57 741q0 357 162.5 561.5t442.5 204.5q107 0 183.5 -35t125.5 -106v123h909v-242h-641v-352h463v-238h-463v-403h670v-254h-938v119q-51 -72 -127.5 -108t-181.5 -36q-280 0 -442.5 204.5t-162.5 561.5zM342 741q0 -253 85 -383.5t249 -130.5q118 0 201.5 73.5 t83.5 164.5v563q0 84 -85.5 158t-199.5 74q-163 0 -248.5 -133t-85.5 -386z" />
<glyph unicode="&#x153;" horiz-adv-x="1663" d="M57 535q0 261 122.5 410t338.5 149q106 0 184.5 -34t137.5 -104q58 68 137.5 103t177.5 35q218 0 333.5 -145t115.5 -417v-40h-643v-21q0 -139 57.5 -213t167.5 -74q70 0 124 35t93 105l186 -117q-69 -113 -172 -171.5t-239 -58.5q-111 0 -191 33t-143 103 q-62 -70 -139.5 -103t-186.5 -33q-214 0 -337.5 148.5t-123.5 409.5zM315 537q0 -170 51 -255t152 -85t152 84t51 256t-50 254.5t-153 82.5q-102 0 -152.5 -84.5t-50.5 -252.5zM965 676h388q0 52 -13.5 94t-40.5 73q-52 58 -142 58q-87 0 -138 -60q-25 -30 -39.5 -71.5 t-14.5 -93.5z" />
<glyph unicode="&#x178;" horiz-adv-x="1147" d="M4 1489h295l287 -619l282 619h275l-426 -899v-590h-281v588zM286 1663v244h226v-244h-226zM634 1663v244h226v-244h-226z" />
<glyph unicode="&#x2c6;" horiz-adv-x="1024" d="M197 1188l196 368h238l196 -368h-141l-174 217l-176 -217h-139z" />
<glyph unicode="&#x2dc;" horiz-adv-x="1024" d="M195 1235q24 121 74 178t130 57q23 0 42 -4l16 -2t29 -8l92 -24l25 -7l30 -2q30 0 52 21t34 65h110q-26 -124 -77 -183.5t-131 -59.5h-15q-9 0 -20.5 1.5t-19 2.5t-19.5 6l-89 27l-35 7l-30 3q-33 0 -54.5 -18.5t-33.5 -59.5h-110z" />
<glyph unicode="&#x2000;" horiz-adv-x="986" />
<glyph unicode="&#x2001;" horiz-adv-x="1972" />
<glyph unicode="&#x2002;" horiz-adv-x="986" />
<glyph unicode="&#x2003;" horiz-adv-x="1972" />
<glyph unicode="&#x2004;" horiz-adv-x="657" />
<glyph unicode="&#x2005;" horiz-adv-x="493" />
<glyph unicode="&#x2006;" horiz-adv-x="328" />
<glyph unicode="&#x2007;" horiz-adv-x="328" />
<glyph unicode="&#x2008;" horiz-adv-x="246" />
<glyph unicode="&#x2009;" horiz-adv-x="394" />
<glyph unicode="&#x200a;" horiz-adv-x="109" />
<glyph unicode="&#x2010;" horiz-adv-x="676" d="M102 426v221h459v-221h-459z" />
<glyph unicode="&#x2011;" horiz-adv-x="676" d="M102 426v221h459v-221h-459z" />
<glyph unicode="&#x2012;" horiz-adv-x="676" d="M102 426v221h459v-221h-459z" />
<glyph unicode="&#x2013;" horiz-adv-x="1024" d="M0 449v174h1024v-174h-1024z" />
<glyph unicode="&#x2014;" horiz-adv-x="2048" d="M0 449v174h2048v-174h-2048z" />
<glyph unicode="&#x2018;" horiz-adv-x="559" d="M141 877v307l129 305h133l-102 -324h119v-288h-279z" />
<glyph unicode="&#x2019;" horiz-adv-x="559" d="M139 1200v289h277v-307l-129 -305h-133l102 323h-117z" />
<glyph unicode="&#x201a;" horiz-adv-x="559" d="M139 0v289h277v-307l-129 -306h-133l102 324h-117z" />
<glyph unicode="&#x201c;" horiz-adv-x="895" d="M82 877v307l129 305h133l-102 -324h116v-288h-276zM537 877v307l129 305h133l-103 -324h119v-288h-278z" />
<glyph unicode="&#x201d;" horiz-adv-x="895" d="M82 1200v289h276v-307l-129 -305h-133l103 323h-117zM537 1200v289h276v-307l-129 -305h-133l104 323h-118z" />
<glyph unicode="&#x201e;" horiz-adv-x="895" d="M82 0v289h276v-307l-129 -306h-133l103 324h-117zM537 0v289h276v-307l-129 -306h-133l104 324h-118z" />
<glyph unicode="&#x2022;" horiz-adv-x="1208" d="M307 762q0 122 87.5 208.5t209.5 86.5q121 0 208 -86.5t87 -208.5t-87.5 -209.5t-209.5 -87.5t-208.5 87.5t-86.5 209.5z" />
<glyph unicode="&#x2026;" horiz-adv-x="2048" d="M201 0v297h281v-297h-281zM883 0v297h281v-297h-281zM1567 0v297h281v-297h-281z" />
<glyph unicode="&#x202f;" horiz-adv-x="394" />
<glyph unicode="&#x2039;" horiz-adv-x="672" d="M76 535l243 327h230l-246 -327l246 -326h-230z" />
<glyph unicode="&#x203a;" horiz-adv-x="672" d="M125 209l246 326l-246 327h227l246 -327l-246 -326h-227z" />
<glyph unicode="&#x205f;" horiz-adv-x="493" />
<glyph unicode="&#x2122;" horiz-adv-x="1706" d="M225 1366v94h467v-94h-168v-448h-129v448h-170zM809 918v542h170l141 -360l133 360h170v-542h-114v428l-160 -428h-59l-166 428v-428h-115z" />
<glyph unicode="&#xe000;" horiz-adv-x="1075" d="M0 0v1075h1075v-1075h-1075z" />
</font>
</defs>
</svg>
